<?xml version="1.0" encoding="UTF-8" standalone="no"?>
<!DOCTYPE svg PUBLIC "-//W3C//DTD SVG 1.1//EN" "http://www.w3.org/Graphics/SVG/1.1/DTD/svg11.dtd">
<svg width="100%" height="100%" viewBox="0 0 1080 1080" version="1.1" xmlns="http://www.w3.org/2000/svg" xmlns:xlink="http://www.w3.org/1999/xlink" xml:space="preserve" xmlns:serif="http://www.serif.com/" style="fill-rule:evenodd;clip-rule:evenodd;stroke-linejoin:round;stroke-miterlimit:2;">
    <g transform="matrix(1.08976,0,0,0.682391,-11.2689,119.722)">
        <path d="M368.386,414.005L368.386,706.532L21.024,706.532L21.024,414.005L368.386,414.005ZM174.067,452.65L174.067,467.104L139.743,467.104L132.692,509.321L144.501,509.321L135.241,518.624L135.326,663.02L162.682,657.153L162.682,510.466L173.897,510.466L173.812,662.877L201.169,654.72L201.169,510.466L215.612,510.466L215.612,565.563C216.348,603.153 214.394,621.614 209.75,620.946L209.75,664.308C217.396,664.308 223.824,661.518 229.035,655.937C234.246,650.355 238.296,637.261 241.184,616.653L241.354,486.853C240.618,475.5 236.738,468.917 229.715,467.104L200.914,467.104L200.914,453.08L174.067,452.65ZM256.477,466.532L253.418,507.175L262.424,507.175L262.424,541.092L253.758,540.805L253.673,577.298L260.47,577.298L260.47,602.056C261.32,617.226 259.111,624.763 253.843,624.667L253.843,660.874C271.345,664.308 281.596,647.756 284.598,611.215L284.598,576.01L316.713,575.724C317.279,605.395 316.076,621.877 313.102,625.168C310.129,628.46 302.638,626.909 290.63,620.517L282.135,656.437C295.501,665.787 308.415,667.982 320.876,663.02C326.2,660.922 330.717,656.795 334.427,650.642C338.137,644.488 340.303,635.83 340.926,624.667L340.926,562.272C339.567,547.198 332.94,540.042 321.046,540.805C328.692,526.685 332.742,515.046 333.195,505.887C333.648,496.728 332.657,488.141 330.221,480.127C327.786,472.113 320.876,467.581 309.491,466.532L256.477,466.532ZM284.598,507.175L306.093,507.175C306.773,518.91 303.261,528.26 295.558,535.224L284.598,539.231L284.598,507.175ZM38.812,466.389L33.46,509.035L51.811,508.892L40.172,519.768L40.002,580.017L30.826,589.749L40.172,623.379L40.172,661.446L63.96,661.16L64.045,610.07L77.384,599.48L82.736,616.653C92.648,644.893 102.05,660.54 110.942,663.593L124.621,667.886L126.575,623.809C117.456,621.805 110.404,614.22 105.42,601.054L98.708,583.023C106.694,577.107 112.245,571.884 115.36,567.352C118.475,562.82 120.854,553.924 122.497,540.662L122.667,483.132C120.741,473.019 117.201,467.438 112.047,466.389L38.812,466.389ZM64.045,509.035L98.708,509.035L98.708,528.784C98.708,537.275 95.622,543.429 89.448,547.245L64.045,564.132L64.045,509.035Z"/>
    </g>
    <g transform="matrix(0.816276,0.00437137,-0.00552368,1.14755,-181.541,6.14564)">
        <g transform="matrix(160,0,0,160,1479.46,483.36)">
        </g>
        <text x="725.056px" y="483.36px" style="font-family:'Avenir-Book', 'Avenir';font-size:160px;">TRAINING</text>
    </g>
</svg>
