<?xml version="1.0" encoding="UTF-8"?>
<svg id="Layer_2" data-name="Layer 2" xmlns="http://www.w3.org/2000/svg" viewBox="0 0 515.99 513.37">
  <defs>
    <style>
      .cls-1 {
        fill: none;
        stroke: linen;
        stroke-miterlimit: 10;
        stroke-width: 12px;
      }
    </style>
  </defs>
  <path class="cls-1" d="M251.29,6.03c21.93-.34,123.03.94,196.12,82.78,4.15,4.65,13.71,15.63,23.69,31.32,7.03,11.06,34.24,55.82,38.36,116.68,6.77,99.86-53.49,170.87-65.05,184-53.31,60.51-118.35,77-131,80-18.85,4.47-80.17,16.67-149-11C47.31,442.73,15.76,323.36,13.41,313.81c-6.29-25.52-17.14-86.94,11-155C61.08,70.12,137.45,34.26,154.41,26.81c13.21-5.8,48.79-20.03,96.88-20.78Z"/>
  <path class="cls-1" d="M9.62,226c44.97,28.75,194.03,115.4,335.78,109.81,63.79-2.51,116.66-17.36,155-32"/>
  <path class="cls-1" d="M155.41,31.81c-27.43,32.73-76.53,85.6-94,168-11.43,53.88-8.31,96.84-7,111,5.12,55.43,22.09,98.46,35,125"/>
  <path class="cls-1" d="M27.43,162.03c33.88,77.4,146.73,37.73,219.98-26.22,39.43-34.43,80.6-50.27,107-52,44-2.89,93.02,21.41,118.95,39.96"/>
  <path class="cls-1" d="M12.03,307.91c28.47-20.69,61.66,22.97,88.31,50.16,57.19,58.34,83.64,95.69,116.94,119,20.64,14.45,55.31,15.64,106.7,20.92"/>
</svg>