<?xml version="1.0" encoding="UTF-8" standalone="no"?>
<!DOCTYPE svg PUBLIC "-//W3C//DTD SVG 1.1//EN" "http://www.w3.org/Graphics/SVG/1.1/DTD/svg11.dtd">
<svg width="100%" height="100%" viewBox="0 0 600 100" version="1.1" xmlns="http://www.w3.org/2000/svg" xmlns:xlink="http://www.w3.org/1999/xlink" xml:space="preserve" xmlns:serif="http://www.serif.com/" style="fill-rule:evenodd;clip-rule:evenodd;stroke-linejoin:round;stroke-miterlimit:2;">
    <g transform="matrix(0.930769,0,0,1.17302,0,0)">
        <path d="M212.956,0L212.956,85.25L0,85.25L0,0L212.956,0ZM18.949,16.411L15.776,28.319L26.654,28.279L19.755,31.316L19.654,48.14L14.215,50.857L19.755,60.248L19.755,70.877L33.856,70.797L33.906,56.531L41.813,53.574L44.986,58.37C50.861,66.255 56.435,70.624 61.706,71.477L69.814,72.676L70.972,60.368C65.567,59.808 61.387,57.69 58.432,54.014L54.454,48.979C59.188,47.327 62.478,45.868 64.325,44.603C66.171,43.338 67.581,40.853 68.555,37.15L68.656,21.086C67.514,18.262 65.416,16.704 62.361,16.411L18.949,16.411ZM33.906,28.319L54.454,28.319L54.454,33.834C54.454,36.205 52.624,37.923 48.964,38.989L33.906,43.704L33.906,28.319ZM99.124,12.574L99.124,16.61L78.778,16.61L74.598,28.399L81.599,28.399L76.109,30.996L76.16,71.317L92.376,69.679L92.376,28.719L99.024,28.719L98.973,71.277L115.19,68.999L115.19,28.719L123.751,28.719L123.751,44.104C124.188,54.6 123.029,59.755 120.276,59.568L120.276,71.677C124.809,71.677 128.62,70.897 131.708,69.339C134.797,67.78 137.198,64.124 138.91,58.37L139.011,22.125C138.574,18.955 136.275,17.117 132.111,16.61L115.039,16.61L115.039,12.694L99.124,12.574ZM147.975,16.451L146.162,27.799L151.501,27.799L151.501,37.27L146.364,37.19L146.313,47.38L150.342,47.38L150.342,54.294C150.846,58.529 149.536,60.634 146.414,60.607L146.414,70.718C156.789,71.677 162.865,67.054 164.645,56.851L164.645,47.021L183.682,46.941C184.017,55.226 183.304,59.828 181.541,60.747C179.779,61.666 175.338,61.233 168.221,59.449L163.184,69.479C171.108,72.09 178.763,72.702 186.149,71.317C189.305,70.731 191.983,69.579 194.182,67.86C196.381,66.142 197.665,63.724 198.035,60.607L198.035,43.184C197.229,38.975 193.301,36.977 186.25,37.19C190.783,33.248 193.183,29.997 193.452,27.44C193.72,24.882 193.133,22.485 191.689,20.247C190.245,18.009 186.149,16.744 179.401,16.451L147.975,16.451ZM164.645,27.799L177.386,27.799C177.789,31.076 175.708,33.687 171.142,35.632L164.645,36.751L164.645,27.799Z"/>
    </g>
    <g transform="matrix(1.05185,0,0,1.05185,-139.138,27.3308)">
        <g id="Layer1">
            <g transform="matrix(80,0,0,80,695.873,49.8719)">
            </g>
            <text x="326.513px" y="49.872px" style="font-family:'AvenirNext-UltraLight', 'Avenir Next', sans-serif;font-weight:275;font-size:80px;">TRAINING</text>
        </g>
    </g>
</svg>
