<?xml version="1.0" encoding="UTF-8" standalone="no"?>
<!DOCTYPE svg PUBLIC "-//W3C//DTD SVG 1.1//EN" "http://www.w3.org/Graphics/SVG/1.1/DTD/svg11.dtd">
<svg width="100%" height="100%" viewBox="0 0 600 100" version="1.1" xmlns="http://www.w3.org/2000/svg" xmlns:xlink="http://www.w3.org/1999/xlink" xml:space="preserve" xmlns:serif="http://www.serif.com/" style="fill-rule:evenodd;clip-rule:evenodd;stroke-linejoin:round;stroke-miterlimit:2;">
    <rect id="Artboard1" x="0" y="0" width="600" height="100" style="fill:none;"/>
    <g id="Layer1">
        <g transform="matrix(1.01679,0,0,1,0,0)">
            <path d="M295.046,0L295.046,100L0,100L0,0L295.046,0ZM115.501,5.681L115.501,11.634L92.084,11.634L87.274,29.019L95.33,29.019L89.013,32.85L89.071,92.315L107.734,89.899L107.734,29.491L115.385,29.491L115.327,92.256L133.99,88.897L133.99,29.491L143.844,29.491L143.844,52.181C144.346,67.661 143.013,75.263 139.844,74.988L139.844,92.845C145.061,92.845 149.447,91.696 153.002,89.398C156.557,87.099 159.319,81.707 161.29,73.22L161.406,19.767C160.904,15.091 158.257,12.38 153.465,11.634L133.817,11.634L133.817,5.858L115.501,5.681ZM171.723,11.398L169.636,28.135L175.78,28.135L175.78,42.103L169.868,41.985L169.81,57.013L174.447,57.013L174.447,67.209C175.027,73.456 173.52,76.56 169.926,76.52L169.926,91.431C181.866,92.845 188.86,86.029 190.908,70.981L190.908,56.483L212.818,56.365C213.204,68.584 212.383,75.371 210.354,76.727C208.326,78.082 203.215,77.444 195.023,74.811L189.227,89.604C198.347,93.454 207.157,94.358 215.658,92.315C219.29,91.45 222.371,89.751 224.902,87.217C227.433,84.683 228.911,81.117 229.336,76.52L229.336,50.825C228.409,44.617 223.888,41.671 215.774,41.985C220.99,36.17 223.753,31.377 224.062,27.605C224.371,23.833 223.695,20.297 222.033,16.997C220.372,13.696 215.658,11.83 207.891,11.398L171.723,11.398ZM190.908,28.135L205.572,28.135C206.036,32.968 203.64,36.818 198.385,39.686L190.908,41.337L190.908,28.135ZM23.227,11.339L19.575,28.902L32.095,28.843L24.154,33.322L24.038,58.133L17.778,62.14L24.154,75.99L24.154,91.667L40.383,91.549L40.441,70.509L49.541,66.148L53.193,73.22C59.955,84.85 66.369,91.293 72.436,92.551L81.767,94.319L83.101,76.167C76.879,75.342 72.069,72.218 68.668,66.796L64.089,59.371C69.538,56.935 73.324,54.784 75.45,52.917C77.575,51.051 79.198,47.387 80.318,41.926L80.434,18.234C79.121,14.07 76.705,11.771 73.189,11.339L23.227,11.339ZM40.441,28.902L64.089,28.902L64.089,37.034C64.089,40.531 61.983,43.065 57.771,44.637L40.441,51.591L40.441,28.902Z"/>
        </g>
        <g transform="matrix(1.20243,0,0,1,245.228,0)">
            <rect x="0" y="0" width="295.046" height="100" style="fill:white;"/>
        </g>
        <g transform="matrix(1.12033,0,0,1.12033,-199.183,24.9286)">
            <g transform="matrix(66.6667,0,0,66.6667,714.811,45.9785)">
            </g>
            <text x="400.477px" y="45.979px" style="font-family:'Avenir-Book', 'Avenir';font-size:66.667px;">TRAINING</text>
        </g>
    </g>
</svg>
